# xmcd CD database file
#
# Track frame offsets:
#	150
#	11639
#	25489
#	34084
#	44875
#	56436
#	68010
#	80627
#	91674
#	102930
#	114805
#	125157
#	136735
#	147041
#
# Disc length: 2096 seconds
#
# Revision: 0
# Processed by: cddbd v1.5.1PL0 Copyright (c) Steve Scherf et al.
# Submitted via: CDex 1.51
#
DISCID=b9082e0e
DTITLE=Patsy Cline - Stop The World - Disk # 2
DYEAR=1900
DGENRE=Country
TTITLE0=The Heart You Break
TTITLE1=A Church, A Courtroom And Then Goodbye
TTITLE2=Come On In
TTITLE3=I Don't Wanna
TTITLE4=Let The Teardrops Fall
TTITLE5=I've Loved And Lost Again
TTITLE6=Fingerprints
TTITLE7=I Can't Forget You
TTITLE8=Hungry For Your Love
TTITLE9=If Only I Could Stay Asleep
TTITLE10=I Love You Honey
TTITLE11=Never No More
TTITLE12=Pick Me Up On Your Way Down
TTITLE13=Too Many Secrets
EXTD=
EXTT0=
EXTT1=
EXTT2=
EXTT3=
EXTT4=
EXTT5=
EXTT6=
EXTT7=
EXTT8=
EXTT9=
EXTT10=
EXTT11=
EXTT12=
EXTT13=
PLAYORDER=
